# xmcd
#
# Track frame offsets: 
#        150
#        3162
#        11918
#        15820
#        16189
#        25518
#        25824
#        26886
#        38242
#        40614
#        49558
#        49912
#        58804
#        61280
#        71127
#        81693
#        88108
#        88409
#        101513
#        103277
#        111376
#        122311
#        123652
#        131648
#        132609
#        140987
#
# Disc length: 2014 seconds
#
# Revision: 0
# Processed by: cddbd v1.5.2PL0 Copyright (c) Steve Scherf et al.
# Submitted via: ExactAudioCopy v0.95b3
#
DISCID=6f07dc1a
DTITLE=The Beatles  - Way Beyond Compare - Episode 17 Easy Beat and Side
DTITLE=By Side and Swinging Sound and Saturday Club (3 April-21 May 1963)
DTITLE=FLAC
DYEAR=1900
DGENRE=
TTITLE0=Intro gerry marsden
TTITLE1=From Me To You
TTITLE2=Side By Side
TTITLE3='Up To Some No Good Monkey Business'
TTITLE4=Too Much Monkey Business
TTITLE5='An Old Chuck Berry Number'
TTITLE6='His One And Only Song'
TTITLE7=Boys
TTITLE8='One Voice Noticably Absent'
TTITLE9=I'll Be On My Way
TTITLE10=A 'George Playing'
TTITLE11=From Me To You
TTITLE12=Radio Interview - Roger Henning, 3DB Melbourne
TTITLE13=Twist And Shout
TTITLE14=From Me To You
TTITLE15=Bad To Me
TTITLE16='Our Bill Toppers'
TTITLE17=I Saw Her Standing There
TTITLE18='As Everything Else Combined'
TTITLE19=Do You Want To Know A Secret
TTITLE20=Boys
TTITLE21='Their Fame Has Spread To Egypt'
TTITLE22=Long Tall Sally
TTITLE23='Requests For Their Big One'
TTITLE24=From Me To You
TTITLE25=Money (That's What I Want)
EXTD=
EXTT0=
EXTT1=
EXTT2=
EXTT3=
EXTT4=
EXTT5=
EXTT6=
EXTT7=
EXTT8=
EXTT9=
EXTT10=
EXTT11=
EXTT12=
EXTT13=
EXTT14=
EXTT15=
EXTT16=
EXTT17=
EXTT18=
EXTT19=
EXTT20=
EXTT21=
EXTT22=
EXTT23=
EXTT24=
EXTT25=
PLAYORDER=
